<?xml version="1.0" standalone="no"?>
<!DOCTYPE svg PUBLIC "-//W3C//DTD SVG 20010904//EN"
 "http://www.w3.org/TR/2001/REC-SVG-20010904/DTD/svg10.dtd">
<svg version="1.0" xmlns="http://www.w3.org/2000/svg"
 width="512.000000pt" height="512.000000pt" viewBox="0 0 512.000000 512.000000"
 preserveAspectRatio="xMidYMid meet">
<metadata>
Created by potrace 1.14, written by Peter Selinger 2001-2017
</metadata>
<g transform="translate(0.000000,512.000000) scale(0.100000,-0.100000)"
fill="#000000" stroke="none">
<path d="M0 2560 l0 -2560 2560 0 2560 0 0 2560 0 2560 -2560 0 -2560 0 0
-2560z m2500 1353 l0 -98 -105 -17 c-58 -9 -153 -33 -212 -53 -504 -169 -874
-600 -949 -1107 -20 -134 -15 -356 11 -457 40 -163 141 -295 250 -326 108 -32
187 -9 285 81 265 246 461 892 483 1594 l2 74 185 73 c102 40 193 76 203 79
16 5 17 -42 17 -903 0 -624 4 -921 11 -948 6 -22 21 -51 32 -63 19 -20 29 -23
68 -20 56 6 99 34 140 94 l30 45 60 -52 c32 -28 59 -53 59 -56 0 -3 -14 -32
-32 -64 -36 -69 -137 -168 -197 -195 -23 -10 -41 -22 -41 -27 0 -20 119 -124
176 -154 78 -42 174 -57 257 -43 111 20 169 79 201 205 14 51 16 162 16 793 0
624 2 744 16 810 25 125 82 233 182 345 l46 52 -133 3 c-222 4 -302 -21 -422
-136 l-74 -70 -65 58 c-76 68 -78 57 45 188 126 134 256 228 395 285 131 54
169 59 538 64 212 3 342 2 342 -4 0 -5 -64 -79 -142 -163 -222 -237 -285 -331
-307 -454 -7 -39 -11 -300 -11 -757 0 -730 -3 -788 -47 -924 -38 -120 -128
-262 -210 -334 -244 -216 -630 -272 -963 -140 -89 35 -251 128 -258 147 -2 6
52 55 119 108 l121 98 -49 11 c-158 36 -263 146 -299 314 -8 42 -14 132 -14
246 l-1 180 -30 -80 c-81 -216 -187 -392 -303 -503 -84 -80 -150 -121 -246
-154 -86 -30 -292 -32 -385 -4 -108 32 -194 85 -277 168 -65 65 -86 95 -127
181 -75 156 -86 214 -86 457 0 219 9 284 62 455 33 108 128 300 202 410 242
362 623 629 1044 734 99 25 256 48 335 50 l52 1 0 -97z"/>
</g>
</svg>
